<svg width="30" height="31" viewBox="0 0 30 31" fill="none" xmlns="http://www.w3.org/2000/svg">
<path d="M2.89773 5.77163C1.12723 7.54214 0.321676 10.2883 1.84918 12.6786C3.11138 14.6537 5.32706 17.532 9.20943 21.4143C13.0918 25.2967 15.9701 27.5124 17.9452 28.7746C20.3355 30.3021 23.0816 29.4965 24.8521 27.726L26.7399 25.8382C28.2044 24.3738 28.2044 21.9994 26.7399 20.5349L24.264 18.059C23.1617 16.9567 21.4571 16.7306 20.1056 17.5073C19.3025 17.9689 18.2898 17.8345 17.6348 17.1796L13.4442 12.9889C12.7893 12.334 12.6549 11.3212 13.1164 10.5182C13.8932 9.16662 13.6671 7.46208 12.5648 6.35979L10.0888 3.88383C8.62436 2.41937 6.24999 2.41937 4.78553 3.88383L2.89773 5.77163ZM3.95576 11.3323C3.23071 10.1978 3.47809 8.72681 4.6655 7.5394L6.55329 5.6516C7.04145 5.16345 7.83291 5.16345 8.32106 5.6516L10.797 8.12755C11.1005 8.43104 11.1628 8.90034 10.9489 9.27246C9.92447 11.0549 10.2227 13.303 11.6764 14.7567L15.8671 18.9473C17.3208 20.4011 19.5688 20.6993 21.3513 19.6749C21.7234 19.461 22.1927 19.5233 22.4962 19.8268L24.9722 22.3027C25.4603 22.7909 25.4603 23.5823 24.9722 24.0705L23.0844 25.9583C21.897 27.1457 20.426 27.3931 19.2914 26.668C17.5019 25.5244 14.763 23.4324 10.9772 19.6466C7.19137 15.8607 5.09934 13.1218 3.95576 11.3323ZM17.5 4.25C17.5 3.55964 18.0596 3 18.75 3C23.5825 3 27.5 6.91751 27.5 11.75C27.5 12.4404 26.9403 13 26.25 13C25.5596 13 25 12.4404 25 11.75C25 8.29822 22.2018 5.5 18.75 5.5C18.0596 5.5 17.5 4.94036 17.5 4.25ZM17.5 9.25C17.5 8.55964 18.0596 8 18.75 8C20.8211 8 22.5 9.67893 22.5 11.75C22.5 12.4404 21.9403 13 21.25 13C20.5596 13 20 12.4404 20 11.75C20 11.0596 19.4403 10.5 18.75 10.5C18.0596 10.5 17.5 9.94036 17.5 9.25Z" fill="#5B4A4A"/>
</svg>
